<svg width="25" height="25" viewBox="0 0 25 25" fill="none" xmlns="http://www.w3.org/2000/svg">
<path fill-rule="evenodd" clip-rule="evenodd" d="M25 15.7728C25 16.3827 24.6138 16.6669 23.9226 16.6669H22.6017V16.0571H23.9226C24.0446 16.0571 24.1463 16.0369 24.1871 15.9964C24.2276 15.9555 24.2683 15.8945 24.2683 15.8134C24.2683 15.7319 24.2278 15.6507 24.1871 15.6102C24.1463 15.5694 24.0651 15.5492 23.9431 15.5492C23.3132 15.5287 22.5204 15.5694 22.5204 14.6751C22.5204 14.2685 22.7846 13.8213 23.4959 13.8213H24.8577V14.4312H23.5975C23.4758 14.4312 23.3943 14.4312 23.3333 14.4717C23.2723 14.5327 23.2318 14.5937 23.2318 14.6953C23.2318 14.797 23.2928 14.858 23.3739 14.8988C23.4554 14.919 23.5368 14.9393 23.6384 14.9393H24.0041C24.3903 14.9393 24.6343 15.0205 24.797 15.163C24.9187 15.3052 25 15.4883 25 15.7728ZM22.1341 15.163C21.9714 15.0205 21.7274 14.9393 21.3412 14.9393H20.9755C20.874 14.9393 20.7925 14.9188 20.7114 14.8988C20.6299 14.858 20.5692 14.797 20.5692 14.6953C20.5692 14.5937 20.5894 14.5327 20.6707 14.4717C20.7317 14.4312 20.8129 14.4312 20.9349 14.4312H22.1951V13.8213H20.8334C20.1015 13.8213 19.8575 14.2685 19.8575 14.6751C19.8575 15.5692 20.6504 15.5287 21.2805 15.5492C21.4022 15.5492 21.4837 15.5694 21.5242 15.6102C21.5647 15.6507 21.6057 15.7319 21.6057 15.8134C21.6057 15.8945 21.5649 15.9555 21.5242 15.9964C21.4632 16.0369 21.382 16.0571 21.26 16.0571H19.9388V16.6669H21.26C21.9509 16.6669 22.3373 16.3825 22.3373 15.7728C22.3373 15.4883 22.2561 15.3052 22.1341 15.163ZM19.5323 16.0777H17.9269V15.5085H19.4918V14.9396H17.9269V14.411H19.5323V13.8216H17.2561V16.667H19.5323V16.0777ZM16.5242 13.9639C16.3006 13.8419 16.0364 13.8215 15.6909 13.8215H14.126V16.6669H14.8168V15.6304H15.5487C15.7924 15.6304 15.9349 15.6508 16.0365 15.7524C16.1585 15.8945 16.1585 16.1385 16.1585 16.3215V16.6669H16.8291V16.1181C16.8291 15.8539 16.8089 15.7319 16.7276 15.5897C16.6666 15.5082 16.5448 15.4067 16.3822 15.3457C16.5649 15.285 16.87 15.041 16.87 14.5937C16.8699 14.2686 16.7479 14.0856 16.5242 13.9639ZM12.6624 13.8215H10.4875L9.61349 14.7565L8.78013 13.8215H6.03621V16.6669H8.73962L9.61364 15.7319L10.447 16.6669H11.7682V15.7118H12.6219C13.2113 15.7118 13.8009 15.5492 13.8009 14.7565C13.8008 13.9841 13.1909 13.8215 12.6624 13.8215ZM15.9754 15.0005C15.8739 15.041 15.7722 15.041 15.6502 15.041L14.8168 15.0615V14.4108H15.6502C15.7722 14.4108 15.8942 14.4108 15.9754 14.4718C16.0569 14.5126 16.1176 14.5938 16.1176 14.7158C16.1176 14.8378 16.0569 14.9395 15.9754 15.0005ZM12.6624 15.1427H11.7681V14.4108H12.6624C12.9064 14.4108 13.0689 14.5126 13.0689 14.7565C13.0689 15.0005 12.9063 15.1427 12.6624 15.1427ZM10.0403 15.2442L11.0972 14.1265V16.4232L10.0403 15.2442ZM8.39395 16.0777H6.7069V15.5085H8.21096V14.9396H6.7069V14.411H8.41429L9.16632 15.2443L8.39395 16.0777ZM23.1096 11.7686H22.1341L20.8535 9.63432V11.7686H19.4716L19.2071 11.1384H17.7844L17.5202 11.7686H16.7274C16.4022 11.7686 15.9754 11.6872 15.7317 11.4432C15.508 11.1994 15.386 10.8742 15.386 10.366C15.386 9.93917 15.447 9.55299 15.7517 9.24814C15.9549 9.02448 16.3209 8.92296 16.7883 8.92296H17.4386V9.53281H16.7883C16.5446 9.53281 16.4021 9.57347 16.2599 9.69547C16.1379 9.81747 16.0769 10.041 16.0769 10.3458C16.0769 10.6507 16.1379 10.8743 16.2599 11.0167C16.3614 11.1182 16.5446 11.1589 16.7273 11.1589H17.0323L18.0078 8.92311H19.0242L20.1624 11.606V8.92296H21.2194L22.4186 10.8945V8.92296H23.1095L23.1096 11.7686ZM15.0405 8.92296H14.3496V11.7686H15.0405V8.92296ZM13.5973 9.04496C13.3736 8.92296 13.1299 8.92296 12.7844 8.92296H11.2192V11.7686H11.8899V10.7319H12.6216C12.8656 10.7319 13.0283 10.7522 13.1298 10.8539C13.2518 10.9962 13.2313 11.2402 13.2313 11.4027V11.7686H13.9222V11.1994C13.9222 10.9555 13.902 10.8335 13.8005 10.6912C13.7395 10.6099 13.6175 10.5082 13.4753 10.4473C13.658 10.366 13.9631 10.1425 13.9631 9.69532C13.9633 9.37014 13.8208 9.18714 13.5973 9.04496ZM10.7314 11.1792H9.14598V10.61H10.711V10.0207H9.14598V9.51247H10.7314V8.92311H8.45495V11.7687H10.7314V11.1792ZM7.94678 8.92296H6.8289L5.99554 10.8539L5.10118 8.92296H4.00364V11.6059L2.8451 8.92296H1.82889L0.609347 11.7686H1.34104L1.60522 11.1384H3.02795L3.29213 11.7686H4.67433V9.53281L5.67021 11.7686H6.25957L7.2556 9.53281V11.7686H7.94663L7.94678 8.92296ZM18.9634 10.5287L18.4958 9.41081L18.0284 10.5287H18.9634ZM13.0689 10.0816C12.9674 10.1426 12.8657 10.1426 12.7234 10.1426H11.8899V9.51262H12.7233C12.8453 9.51262 12.9873 9.51262 13.0688 9.55329C13.15 9.61428 13.1908 9.69562 13.1908 9.81747C13.1908 9.93932 13.1501 10.0408 13.0689 10.0816ZM1.84907 10.5287L2.31659 9.41081L2.7841 10.5287H1.84907ZM24.8375 0H0.588867V10.2442L1.42223 8.35393H3.19046L3.43446 8.82144V8.35393H5.50769L5.97521 9.37014L6.42239 8.35393H13.0283C13.333 8.35393 13.5971 8.41493 13.8006 8.57745V8.35393H15.6095V8.57745C15.9142 8.41478 16.3004 8.35393 16.7477 8.35393H19.3697L19.6137 8.82144V8.35393H21.5446L21.8292 8.82144V8.35393H23.7193V12.3377H21.8089L21.4432 11.728V12.3377H19.065L18.8008 11.6874H18.2111L17.9469 12.3377H16.7072C16.2194 12.3377 15.8534 12.2157 15.6097 12.0939V12.3377H12.6624V11.423C12.6624 11.301 12.6421 11.2807 12.5608 11.2807H12.4592V12.3376H6.7679V11.8294L6.56472 12.3376H5.36551L5.16233 11.8497V12.3376H2.86543L2.62158 11.6872H2.03207L1.76789 12.3376H0.588867V24.3501H24.8375V17.0531C24.5733 17.1751 24.2073 17.2361 23.8415 17.2361H22.0731V16.9921C21.8699 17.1549 21.5039 17.2361 21.1585 17.2361H15.5892V16.3215C15.5892 16.1995 15.569 16.1995 15.4672 16.1995H15.3657V17.2361H13.5363V16.1589C13.2316 16.3011 12.8859 16.3011 12.5811 16.3011H12.3778V17.2361H10.142L9.61364 16.6262L9.02428 17.2361H5.42636V13.2524H9.08498L9.61349 13.862L10.1827 13.2524H12.6421C12.9265 13.2524 13.3941 13.2929 13.5973 13.4961V13.2524H15.7924C16.016 13.2524 16.443 13.2929 16.7274 13.4961V13.2524H20.0405V13.4963C20.2235 13.3336 20.5692 13.2526 20.8739 13.2526H22.7234V13.4963C22.9269 13.3541 23.2113 13.2526 23.5773 13.2526H24.8375V0Z" fill="#DDDDDD"/>
</svg>
